<svg width="18" height="18" viewBox="0 0 18 18" fill="none" xmlns="http://www.w3.org/2000/svg">
<g clip-path="url(#clip0_109_327)">
<path d="M8.9957 1.62147C11.402 1.62147 11.6866 1.63009 12.6354 1.67322C13.5151 1.71634 13.9895 1.86296 14.3086 1.98371C14.7312 2.14758 15.0244 2.34595 15.3436 2.65644C15.6627 2.97556 15.8524 3.26881 16.0163 3.69142C16.137 4.01054 16.2837 4.48491 16.3268 5.36464C16.3699 6.31337 16.3785 6.59799 16.3785 9.00431C16.3785 11.4106 16.3699 11.6953 16.3268 12.644C16.2837 13.5237 16.137 13.9981 16.0163 14.3172C15.8524 14.7398 15.6541 15.0331 15.3436 15.3522C15.0331 15.6627 14.7312 15.861 14.3086 16.0249C13.9895 16.1457 13.5151 16.2923 12.6354 16.3354C11.6866 16.3785 11.402 16.3872 8.9957 16.3872C6.58937 16.3872 6.30476 16.3785 5.35602 16.3354C4.47629 16.2923 4.00193 16.1457 3.68281 16.0249C3.26019 15.861 2.96695 15.6627 2.64783 15.3522C2.32871 15.0331 2.13897 14.7398 1.9751 14.3172C1.85435 13.9981 1.70773 13.5237 1.6646 12.644C1.62148 11.6953 1.61285 11.4106 1.61285 9.00431C1.61285 6.59799 1.62148 6.31337 1.6646 5.36464C1.70773 4.48491 1.85435 4.01054 1.9751 3.69142C2.13897 3.26881 2.33734 2.97556 2.64783 2.65644C2.96695 2.33733 3.26019 2.14758 3.68281 1.98371C4.00193 1.86296 4.47629 1.71634 5.35602 1.67322C6.30476 1.63009 6.58937 1.62147 8.9957 1.62147ZM8.9957 0C6.55487 0 6.24438 0.00862482 5.28703 0.0517489C4.32967 0.094873 3.67419 0.25012 3.10495 0.474365C2.50983 0.707235 2.00959 1.0091 1.50936 1.50934C1.00912 2.00958 0.698622 2.50982 0.474377 3.10494C0.250131 3.67417 0.10351 4.32966 0.0603854 5.28701C0.0172613 6.24437 0.00863647 6.55486 0.00863647 8.99569C0.00863647 11.4365 0.0172613 11.747 0.0603854 12.7044C0.10351 13.6617 0.258756 14.3172 0.474377 14.8864C0.707247 15.4816 1.00912 15.9818 1.50936 16.482C2.00959 16.9823 2.50983 17.2928 3.10495 17.517C3.67419 17.7413 4.32967 17.8879 5.28703 17.9396C6.24438 17.9827 6.55487 17.9914 8.9957 17.9914C11.4365 17.9914 11.747 17.9827 12.7044 17.9396C13.6617 17.8965 14.3172 17.7413 14.8865 17.517C15.4816 17.2841 15.9818 16.9823 16.482 16.482C16.9823 15.9818 17.2928 15.4816 17.517 14.8864C17.7413 14.3172 17.8879 13.6617 17.9396 12.7044C17.9828 11.747 17.9914 11.4365 17.9914 8.99569C17.9914 6.55486 17.9828 6.24437 17.9396 5.28701C17.8965 4.32966 17.7413 3.67417 17.517 3.10494C17.2842 2.50982 16.9823 2.00958 16.482 1.50934C15.9818 1.0091 15.4816 0.69861 14.8865 0.474365C14.3172 0.25012 13.6617 0.103498 12.7044 0.0517489C11.747 0.00862482 11.4365 0 8.9957 0" fill="#222221"/>
<path d="M8.99568 4.38135C6.44273 4.38135 4.37277 6.4513 4.37277 9.00425C4.37277 11.5572 6.44273 13.6272 8.99568 13.6272C11.5486 13.6272 13.6186 11.5572 13.6186 9.00425C13.6186 6.4513 11.5486 4.38135 8.99568 4.38135ZM8.99568 12.0057C7.33971 12.0057 5.99424 10.6602 5.99424 9.00425C5.99424 7.34829 7.33971 6.00281 8.99568 6.00281C10.6516 6.00281 11.9971 7.34829 11.9971 9.00425C11.9971 10.6602 10.6516 12.0057 8.99568 12.0057Z" fill="#222221"/>
<path d="M14.8864 4.19163C14.8864 4.78674 14.4034 5.26973 13.8083 5.26973C13.2132 5.26973 12.7302 4.78674 12.7302 4.19163C12.7302 3.59652 13.2132 3.11353 13.8083 3.11353C14.4034 3.11353 14.8864 3.59652 14.8864 4.19163Z" fill="#222221"/>
</g>
<defs>
<clipPath id="clip0_109_327">
<rect width="18" height="18" fill="white"/>
</clipPath>
</defs>
</svg>
