<svg width="18" height="13" viewBox="0 0 18 13" fill="none" xmlns="http://www.w3.org/2000/svg">
<g clip-path="url(#clip0_109_333)">
<path d="M17.6218 2.02936C17.415 1.22973 16.8063 0.59972 16.0322 0.387698C14.6257 0 9 0 9 0C9 0 3.36835 0 1.96783 0.387698C1.1937 0.59972 0.58503 1.22973 0.378201 2.02936C0 3.47717 0 6.5 0 6.5C0 6.5 0 9.52283 0.378201 10.9706C0.58503 11.7703 1.1937 12.4003 1.96783 12.6123C3.37426 13 9 13 9 13C9 13 14.6316 13 16.0322 12.6123C16.8063 12.4003 17.415 11.7703 17.6218 10.9706C18 9.52283 18 6.5 18 6.5C18 6.5 18 3.47717 17.6218 2.02936Z" fill="#222221"/>
<path d="M7.16218 9.24421V3.75586L11.8661 6.50003L7.16218 9.24421Z" fill="white"/>
</g>
<defs>
<clipPath id="clip0_109_333">
<rect width="18" height="13" fill="white"/>
</clipPath>
</defs>
</svg>
